<?xml version="1.0" encoding="utf-8"?>
<!-- Generator: Adobe Illustrator 17.1.0, SVG Export Plug-In . SVG Version: 6.00 Build 0)  -->
<!DOCTYPE svg PUBLIC "-//W3C//DTD SVG 1.1//EN" "http://www.w3.org/Graphics/SVG/1.1/DTD/svg11.dtd">
<svg version="1.1" id="Layer_2" xmlns="http://www.w3.org/2000/svg" xmlns:xlink="http://www.w3.org/1999/xlink" x="0px" y="0px"
	 width="205px" height="67px" viewBox="0 0 205 67" enable-background="new 0 0 205 67" xml:space="preserve">
<g>
	<g>
		<path fill="#616264" d="M85,19.5c-0.3-0.5-0.8-0.8-1.3-1s-1.1-0.3-1.6-0.3c-0.7,0-1.3,0.1-1.8,0.4c-0.5,0.2-1,0.6-1.4,1
			c-0.4,0.4-0.7,0.9-0.9,1.5c-0.2,0.6-0.3,1.2-0.3,1.9c0,0.7,0.1,1.4,0.3,1.9c0.2,0.6,0.5,1.1,0.9,1.5c0.4,0.4,0.8,0.7,1.4,1
			c0.5,0.2,1.1,0.3,1.8,0.3c0.7,0,1.3-0.1,1.8-0.4c0.5-0.3,1-0.6,1.3-1.1l1.8,1.3c-0.6,0.7-1.3,1.3-2.1,1.7
			c-0.8,0.4-1.8,0.6-2.9,0.6c-1,0-1.9-0.2-2.8-0.5c-0.8-0.3-1.6-0.8-2.2-1.4c-0.6-0.6-1.1-1.3-1.4-2.2c-0.3-0.8-0.5-1.8-0.5-2.8
			c0-1,0.2-2,0.5-2.8c0.4-0.8,0.9-1.5,1.5-2.1c0.6-0.6,1.4-1,2.2-1.4c0.9-0.3,1.8-0.5,2.8-0.5c0.4,0,0.8,0,1.3,0.1
			c0.5,0.1,0.9,0.2,1.3,0.4c0.4,0.2,0.8,0.4,1.2,0.6c0.4,0.2,0.7,0.5,0.9,0.9L85,19.5z"/>
		<path fill="#616264" d="M88.9,16.5h2.3v5.2h6.1v-5.2h2.3v13h-2.3v-5.8h-6.1v5.8h-2.3V16.5z"/>
		<path fill="#616264" d="M103.1,16.5h2.3v13h-2.3V16.5z"/>
		<path fill="#616264" d="M118.1,19.5c-0.3-0.5-0.8-0.8-1.3-1c-0.5-0.2-1.1-0.3-1.6-0.3c-0.7,0-1.3,0.1-1.8,0.4
			c-0.5,0.2-1,0.6-1.4,1c-0.4,0.4-0.7,0.9-0.9,1.5c-0.2,0.6-0.3,1.2-0.3,1.9c0,0.7,0.1,1.4,0.3,1.9c0.2,0.6,0.5,1.1,0.9,1.5
			c0.4,0.4,0.8,0.7,1.4,1c0.5,0.2,1.1,0.3,1.8,0.3c0.7,0,1.3-0.1,1.8-0.4c0.5-0.3,1-0.6,1.3-1.1l1.9,1.3c-0.6,0.7-1.3,1.3-2.1,1.7
			c-0.8,0.4-1.8,0.6-2.9,0.6c-1,0-1.9-0.2-2.8-0.5c-0.8-0.3-1.6-0.8-2.2-1.4c-0.6-0.6-1.1-1.3-1.4-2.2c-0.3-0.8-0.5-1.8-0.5-2.8
			c0-1,0.2-2,0.5-2.8c0.4-0.8,0.9-1.5,1.5-2.1c0.6-0.6,1.4-1,2.2-1.4c0.9-0.3,1.8-0.5,2.8-0.5c0.4,0,0.8,0,1.3,0.1
			c0.5,0.1,0.9,0.2,1.3,0.4c0.4,0.2,0.8,0.4,1.2,0.6c0.4,0.2,0.7,0.5,0.9,0.9L118.1,19.5z"/>
		<path fill="#616264" d="M126.8,16.5h2l5.6,13h-2.6l-1.2-3h-5.6l-1.2,3h-2.6L126.8,16.5z M129.7,24.5l-2-5.3l-2,5.3H129.7z"/>
		<path fill="#616264" d="M146.8,28.7c-0.7,0.3-1.4,0.6-2.2,0.7c-0.8,0.2-1.7,0.3-2.7,0.3c-1,0-2-0.2-2.9-0.5
			c-0.9-0.3-1.6-0.8-2.2-1.4c-0.6-0.6-1.1-1.3-1.5-2.2c-0.3-0.8-0.5-1.8-0.5-2.8c0-1,0.2-2,0.5-2.8c0.4-0.8,0.9-1.5,1.5-2.1
			c0.6-0.6,1.4-1,2.2-1.4c0.9-0.3,1.8-0.5,2.8-0.5c1,0,2,0.2,2.8,0.4c0.9,0.3,1.6,0.7,2.1,1.2l-1.6,1.7c-0.3-0.4-0.8-0.7-1.4-0.9
			c-0.6-0.3-1.2-0.4-1.9-0.4c-0.7,0-1.3,0.1-1.9,0.4c-0.6,0.2-1,0.6-1.4,1c-0.4,0.4-0.7,0.9-0.9,1.5c-0.2,0.6-0.3,1.2-0.3,1.9
			c0,0.7,0.1,1.3,0.3,1.9c0.2,0.6,0.5,1.1,0.9,1.5c0.4,0.4,0.9,0.8,1.4,1c0.6,0.2,1.2,0.4,1.9,0.4c1,0,1.8-0.2,2.6-0.5v-3.3h-2.7V22
			h5V28.7z"/>
		<path fill="#616264" d="M149.4,22.9c0-1,0.2-2,0.5-2.8c0.3-0.8,0.8-1.5,1.4-2.1c0.6-0.6,1.3-1,2.2-1.4c0.8-0.3,1.8-0.5,2.8-0.5
			c1,0,1.9,0.2,2.8,0.5c0.9,0.3,1.6,0.8,2.2,1.4c0.6,0.6,1.1,1.3,1.5,2.1c0.3,0.8,0.5,1.8,0.5,2.8c0,1-0.2,1.9-0.5,2.8
			c-0.3,0.8-0.8,1.6-1.5,2.2c-0.6,0.6-1.4,1.1-2.2,1.4c-0.9,0.3-1.8,0.5-2.8,0.5c-1,0-1.9-0.2-2.8-0.5c-0.9-0.3-1.6-0.8-2.2-1.4
			c-0.6-0.6-1.1-1.3-1.4-2.2C149.6,24.8,149.4,23.9,149.4,22.9z M151.9,22.9c0,0.7,0.1,1.3,0.3,1.9c0.2,0.6,0.5,1.1,0.9,1.5
			c0.4,0.4,0.9,0.8,1.4,1c0.5,0.2,1.1,0.4,1.8,0.4c0.7,0,1.3-0.1,1.8-0.4c0.5-0.2,1-0.6,1.4-1c0.4-0.4,0.7-0.9,0.9-1.5
			c0.2-0.6,0.3-1.2,0.3-1.9c0-0.7-0.1-1.3-0.3-1.9c-0.2-0.6-0.5-1.1-0.9-1.5c-0.4-0.4-0.9-0.8-1.4-1c-0.6-0.2-1.2-0.4-1.8-0.4
			c-0.7,0-1.3,0.1-1.8,0.4c-0.5,0.2-1,0.6-1.4,1c-0.4,0.4-0.7,0.9-0.9,1.5C152,21.6,151.9,22.2,151.9,22.9z"/>
		<path fill="#616264" d="M85,40.1c-0.3-0.5-0.8-0.8-1.3-1s-1.1-0.3-1.6-0.3c-0.7,0-1.3,0.1-1.8,0.4c-0.5,0.2-1,0.6-1.4,1
			c-0.4,0.4-0.7,0.9-0.9,1.5c-0.2,0.6-0.3,1.2-0.3,1.9c0,0.7,0.1,1.4,0.3,1.9c0.2,0.6,0.5,1.1,0.9,1.5s0.8,0.7,1.4,1
			c0.5,0.2,1.1,0.3,1.8,0.3c0.7,0,1.3-0.1,1.8-0.4c0.5-0.3,1-0.6,1.3-1.1l1.8,1.3c-0.6,0.7-1.3,1.3-2.1,1.7
			c-0.8,0.4-1.8,0.6-2.9,0.6c-1,0-1.9-0.2-2.8-0.5c-0.8-0.3-1.6-0.8-2.2-1.4c-0.6-0.6-1.1-1.3-1.4-2.2c-0.3-0.8-0.5-1.8-0.5-2.8
			c0-1,0.2-2,0.5-2.8c0.4-0.8,0.9-1.5,1.5-2.1c0.6-0.6,1.4-1,2.2-1.4c0.9-0.3,1.8-0.5,2.8-0.5c0.4,0,0.8,0,1.3,0.1
			c0.5,0.1,0.9,0.2,1.3,0.4c0.4,0.2,0.8,0.4,1.2,0.6c0.4,0.2,0.7,0.5,0.9,0.9L85,40.1z"/>
		<path fill="#616264" d="M88.1,43.5c0-1,0.2-2,0.5-2.8c0.3-0.8,0.8-1.5,1.4-2.1c0.6-0.6,1.3-1,2.2-1.4c0.8-0.3,1.8-0.5,2.8-0.5
			c1,0,1.9,0.2,2.8,0.5c0.9,0.3,1.6,0.8,2.2,1.4c0.6,0.6,1.1,1.3,1.5,2.1c0.3,0.8,0.5,1.8,0.5,2.8c0,1-0.2,1.9-0.5,2.8
			c-0.3,0.8-0.8,1.6-1.5,2.2c-0.6,0.6-1.4,1.1-2.2,1.4C97,50.2,96,50.3,95,50.3c-1,0-1.9-0.2-2.8-0.5c-0.8-0.3-1.6-0.8-2.2-1.4
			c-0.6-0.6-1.1-1.3-1.4-2.2C88.3,45.4,88.1,44.5,88.1,43.5z M90.6,43.5c0,0.7,0.1,1.3,0.3,1.9c0.2,0.6,0.5,1.1,0.9,1.5
			c0.4,0.4,0.9,0.8,1.4,1c0.5,0.2,1.1,0.4,1.8,0.4c0.7,0,1.3-0.1,1.8-0.4c0.5-0.2,1-0.6,1.4-1c0.4-0.4,0.7-0.9,0.9-1.5
			c0.2-0.6,0.3-1.2,0.3-1.9c0-0.7-0.1-1.3-0.3-1.9c-0.2-0.6-0.5-1.1-0.9-1.5c-0.4-0.4-0.9-0.8-1.4-1c-0.5-0.2-1.2-0.4-1.8-0.4
			c-0.7,0-1.3,0.1-1.8,0.4c-0.5,0.2-1,0.6-1.4,1c-0.4,0.4-0.7,0.9-0.9,1.5C90.7,42.2,90.6,42.8,90.6,43.5z"/>
		<path fill="#616264" d="M104.2,37h2.3v10.9h5.5V50h-7.8V37z"/>
		<path fill="#616264" d="M114.4,37h2.3v10.9h5.5V50h-7.8V37z"/>
		<path fill="#616264" d="M124.4,37h8.6v2h-6.3v3.3h6v1.9h-6v3.7h6.6V50h-8.9V37z"/>
		<path fill="#616264" d="M145.2,40.1c-0.3-0.5-0.8-0.8-1.3-1s-1.1-0.3-1.6-0.3c-0.7,0-1.3,0.1-1.8,0.4c-0.6,0.2-1,0.6-1.4,1
			c-0.4,0.4-0.7,0.9-0.9,1.5c-0.2,0.6-0.3,1.2-0.3,1.9c0,0.7,0.1,1.4,0.3,1.9c0.2,0.6,0.5,1.1,0.9,1.5s0.8,0.7,1.4,1
			c0.5,0.2,1.1,0.3,1.8,0.3c0.7,0,1.3-0.1,1.9-0.4c0.5-0.3,1-0.6,1.3-1.1l1.9,1.3c-0.6,0.7-1.3,1.3-2.1,1.7
			c-0.8,0.4-1.8,0.6-2.9,0.6c-1,0-1.9-0.2-2.8-0.5c-0.8-0.3-1.6-0.8-2.2-1.4c-0.6-0.6-1.1-1.3-1.4-2.2c-0.3-0.8-0.5-1.8-0.5-2.8
			c0-1,0.2-2,0.5-2.8c0.4-0.8,0.9-1.5,1.5-2.1c0.6-0.6,1.4-1,2.2-1.4c0.9-0.3,1.8-0.5,2.8-0.5c0.4,0,0.8,0,1.3,0.1
			c0.4,0.1,0.9,0.2,1.3,0.4c0.4,0.2,0.8,0.4,1.2,0.6c0.4,0.2,0.7,0.5,0.9,0.9L145.2,40.1z"/>
		<path fill="#616264" d="M152.7,39h-4v-2H159v2h-4v11h-2.3V39z"/>
		<path fill="#616264" d="M161.2,37h2.3v13h-2.3V37z"/>
		<path fill="#616264" d="M165.9,43.5c0-1,0.2-2,0.5-2.8c0.3-0.8,0.8-1.5,1.4-2.1c0.6-0.6,1.4-1,2.2-1.4c0.8-0.3,1.8-0.5,2.8-0.5
			c1,0,1.9,0.2,2.8,0.5c0.9,0.3,1.6,0.8,2.2,1.4c0.6,0.6,1.1,1.3,1.5,2.1c0.3,0.8,0.5,1.8,0.5,2.8c0,1-0.2,1.9-0.5,2.8
			c-0.3,0.8-0.8,1.6-1.5,2.2c-0.6,0.6-1.4,1.1-2.2,1.4c-0.9,0.3-1.8,0.5-2.8,0.5c-1,0-1.9-0.2-2.8-0.5c-0.8-0.3-1.6-0.8-2.2-1.4
			c-0.6-0.6-1.1-1.3-1.4-2.2C166.1,45.4,165.9,44.5,165.9,43.5z M168.4,43.5c0,0.7,0.1,1.3,0.3,1.9c0.2,0.6,0.5,1.1,0.9,1.5
			c0.4,0.4,0.9,0.8,1.4,1c0.5,0.2,1.1,0.4,1.8,0.4c0.7,0,1.3-0.1,1.8-0.4c0.5-0.2,1-0.6,1.4-1c0.4-0.4,0.7-0.9,0.9-1.5
			c0.2-0.6,0.3-1.2,0.3-1.9c0-0.7-0.1-1.3-0.3-1.9c-0.2-0.6-0.5-1.1-0.9-1.5c-0.4-0.4-0.9-0.8-1.4-1c-0.5-0.2-1.2-0.4-1.8-0.4
			c-0.7,0-1.3,0.1-1.8,0.4c-0.5,0.2-1,0.6-1.4,1c-0.4,0.4-0.7,0.9-0.9,1.5C168.5,42.2,168.4,42.8,168.4,43.5z"/>
		<path fill="#616264" d="M182,37h3.1l6,9.7h0V37h2.3v13h-2.9l-6.2-10h0v10H182V37z"/>
		<path fill="#616264" d="M203.4,39.7c-0.2-0.3-0.6-0.6-1-0.8c-0.4-0.2-0.9-0.3-1.3-0.3c-0.3,0-0.5,0-0.8,0.1
			c-0.3,0.1-0.5,0.2-0.7,0.3c-0.2,0.1-0.4,0.3-0.5,0.5c-0.1,0.2-0.2,0.5-0.2,0.8c0,0.3,0.1,0.5,0.2,0.8c0.1,0.2,0.3,0.4,0.5,0.5
			c0.2,0.1,0.5,0.3,0.8,0.4c0.3,0.1,0.6,0.2,1,0.3c0.4,0.1,0.8,0.3,1.3,0.5c0.4,0.2,0.9,0.4,1.2,0.7c0.4,0.3,0.7,0.6,0.9,1.1
			c0.2,0.4,0.4,1,0.4,1.6c0,0.7-0.1,1.3-0.4,1.8c-0.3,0.5-0.6,0.9-1,1.3c-0.4,0.3-0.9,0.6-1.5,0.8c-0.6,0.2-1.2,0.3-1.8,0.3
			c-0.8,0-1.7-0.2-2.5-0.5c-0.8-0.3-1.5-0.8-2-1.4l1.6-1.5c0.3,0.4,0.7,0.8,1.3,1c0.5,0.3,1.1,0.4,1.6,0.4c0.3,0,0.5,0,0.8-0.1
			c0.3-0.1,0.5-0.2,0.8-0.3c0.2-0.2,0.4-0.4,0.6-0.6c0.1-0.2,0.2-0.5,0.2-0.9c0-0.3-0.1-0.6-0.2-0.9c-0.2-0.2-0.4-0.4-0.6-0.6
			c-0.3-0.2-0.6-0.3-0.9-0.4c-0.4-0.1-0.8-0.3-1.2-0.4c-0.4-0.1-0.8-0.3-1.2-0.4c-0.4-0.2-0.7-0.4-1.1-0.7c-0.3-0.3-0.6-0.6-0.8-1
			c-0.2-0.4-0.3-0.9-0.3-1.5c0-0.7,0.1-1.2,0.4-1.7c0.3-0.5,0.6-0.9,1.1-1.2c0.4-0.3,1-0.5,1.5-0.7c0.6-0.2,1.1-0.2,1.7-0.2
			c0.7,0,1.3,0.1,2,0.3c0.7,0.2,1.3,0.6,1.8,1L203.4,39.7z"/>
	</g>
	<g>
		<rect x="22" fill="#ED652A" width="6.7" height="66.5"/>
		<rect x="33" y="8.2" fill="#FDB713" width="6.7" height="50"/>
		<rect x="44" y="4.9" fill="#008A90" width="6.7" height="56.8"/>
		<rect x="55" y="13.2" fill="#ED652A" width="6.7" height="40"/>
		<rect x="11" y="12.7" fill="#9CAA10" width="6.7" height="41.1"/>
		<rect x="0" y="8.1" fill="#FDB713" width="6.7" height="50.3"/>
	</g>
</g>
</svg>
