<svg version="1.1" id="logo" xmlns="http://www.w3.org/2000/svg" x="0" y="0" viewBox="0 0 829.4 89.3" xml:space="preserve"><path d="M321.9 30.1V7H334v57.8h-12.1V39h-13.8v25.8H296V7h12.1v23.1h13.8zM354.9 7v8.9h-11.3V7h11.3zm0 57.8h-11.3V24.4h11.3v40.4zM373.4 51.8c-.1 1.8 0 3.6.6 4.9.6 1.3 1.8 1.9 4.1 1.9 2.2 0 4.2-1.4 4.2-4.2 0-8.6-19.8-6.6-19.8-19.5 0-8.7 8.6-11.4 15.9-11.4 7.7 0 14.6 3.7 14 12.4h-11c0-2.8-.3-4.5-1.1-5.2-.7-.7-1.7-.9-2.9-.9-2.5 0-3.8 1.6-3.8 4.3 0 6.4 19.8 6.1 19.8 19 0 7-5.8 12.3-15.1 12.3-9.8 0-16.4-2.5-15.8-13.8h10.9v.2zM396.3 24.4h4.6V18l11.3-5v11.4h5.8v7h-5.8v21.5c0 3-.1 5 3.6 5 .7 0 1.4 0 2-.2v7c-1.5.2-3.1.4-5.8.4-9.8 0-11-6.5-11-9V31.2h-4.6v-6.8h-.1zM422.1 44c0-11 1.6-20.5 16.5-20.5s16.5 9.4 16.5 20.5c0 12.6-1.9 21.5-16.5 21.5-14.6.1-16.5-8.8-16.5-21.5zm21.7-.6c0-8.4-.4-12.6-5.2-12.6s-5.2 4.2-5.2 12.6c0 12.3 1 15 5.2 15s5.2-2.7 5.2-15zM471 24.4v5.2h.2c2.1-4.6 5.9-6 10.5-6v10.1c-9.9-.6-10.1 5.1-10.1 9.1v22h-11.3V24.4H471zM495.7 65.1l-11-40.7h11.2l5.8 28.4h.2l6.1-28.4h10.9l-15.6 55.7h-11.8l4.2-15z"/><g><path d="M9.6 58.1C3.1 52 0 41.5 0 32.9c0-8.4 2.7-17 9.2-23.8C13.8 4.2 21.9 0 31.7 0c8.2 0 14.9 3.1 18.2 4.9 1.2.7 1.6.6 1.8 0l.7-2.6c.2-.5.4-.5 1.2-.5s1 .2 1 1.4c0 1.7 1.8 14.9 2.3 17.5.1.5 0 .8-.4.9l-1.4.4c-.4.1-.6 0-.9-.7-1.3-3-3.2-7.3-7-11.2-3.8-3.9-8.6-6.9-15.7-6.9C15.4 3.2 8.9 17.5 9 30.6c0 5.2 1.6 15.4 8.6 23.1 6.1 6.8 11.3 7.6 17.3 7.6 10.2 0 18.1-5.6 22.2-11.4.3-.5.5-.5.7-.3l1.2.9c.3.2.4.4.2.8-5.4 7.8-14.1 15.1-26.8 15.1-10.6 0-17.4-3.3-22.8-8.3zM69.4 16c0-5.5-1.1-6.5-4.3-7.6l-1.5-.5c-.5-.2-.6-.3-.6-.5v-.8c0-.4.3-.5 1.1-.9L73.5.8c.7-.4 1.3-.7 2.1-.7.5 0 .9.7.7 2.2S76 22.1 76 26.6v5.8h.5c3.1-3.8 8.4-5.8 12.3-5.8 3.8 0 6.4 1.2 8.9 3.6 4.1 3.8 3.9 8.4 3.9 13.2v5.1c0 5 .2 10.6.2 12.3 0 1.1 1.4 1.4 3.3 1.4h1.5c.7 0 1 .2 1 .8v1.4c0 .7-.2 1.1-.7 1.1-.6 0-3.5-.3-8.6-.3-4.4 0-7.7.3-8.5.3-.6 0-.8-.3-.8-1V63c0-.4.1-.7.6-.7h2.1c1.5 0 3.3-.2 3.4-1.7.1-1.3 0-6 0-8.9v-7.3c0-5-.4-8.6-3-11.1-1.8-1.7-3.7-2.5-5.9-2.5-2.6 0-5.9.9-8.4 3.8-.8 1-1.8 2.8-1.8 4.4v19.6c0 2.9.3 3.7 2 3.7h2.7c.6 0 1 .2 1 .7v1.5c0 .6-.2 1-.7 1-.7 0-4.4-.3-8.6-.3-4.5 0-7.9.3-8.7.3-.4 0-.6-.3-.6-.9V63c0-.6.4-.7 1.4-.7h1.9c1.4 0 2.8-.4 3-1.4.3-1.7.3-11.6.3-17.5V16h-.3zM117.4 38.9c0-3.1-.5-4.7-5-5.4-.6-.1-.8-.3-.8-.6v-.8c0-.3.2-.5.6-.6 2.9-1.1 6.3-2.5 9.7-4.4.7-.4 1.2-.5 1.7-.5.4 0 .5.4.4 1.1-.2 1.5-.2 7.2-.2 14.7v9.8c0 3.5 0 6.8.1 7.7.2 1.7.4 2.3 1.4 2.3h4.1c.7 0 .9.3.9.8v1.5c0 .6-.2.9-.8.9-.7 0-4.9-.3-8.6-.3-5.2 0-8.7.3-9.7.3-.4 0-.7-.2-.7-.7v-1.8c0-.5.3-.7.9-.7h4.4c1 0 1.3-.4 1.4-1.8.1-2.7.1-5.5.1-8.2V38.9h.1zm-4.1-31.1c0-2.2 1.9-4.7 5.5-4.7 3.1 0 4.7 2.4 4.7 4.4 0 2.3-1.6 4.9-5.2 4.9-2 .1-5-1.7-5-4.6zM139.4 43.3c0 4.9 2.2 10.3 4.6 13.7 3 3.9 6.8 4.6 9.8 4.6 4.5 0 6.8-1 9.9-3.9.2-.2.4-.3.7 0l.9.9c.4.4.4.6 0 1.2-2.6 3-8.4 6.4-14.5 6.4-4.8 0-9.8-1.1-14-6.3-3.3-4.4-4-8.2-4-12.2 0-10.5 7.4-21.2 19.3-21.2 9.4 0 12.2 5.4 12.2 7.3-.1 2.1-1.4 3.1-3.3 3.1-2.1 0-3.6-1.2-5-3.6-2-3.7-3.9-4-6-4-5.1 0-10.6 4.7-10.6 14zM196.3 54.4c0 5.1 1.1 6.7 2.7 6.7 1.4 0 2.7-.7 3.2-1.4.4-.4.5-.6.9-.4l.9.7c.3.3.4.7-.1 1.6-.7 1.3-2.4 4.4-7 4.4-3.2 0-5.6-2.3-6.4-6h-.2c-1.9 2.2-4.9 4.1-8.9 5.5-1.7.5-3.3.5-5.3.5-2.2 0-5.4-1.8-5.4-7.5 0-4.1 1.9-7.7 9-10.9 4.1-1.8 8.7-4 10.2-5.2v-5.8c-.2-1.5-.3-3.9-1.3-5-1-1.2-2.8-2-5.4-2-1.8 0-4.6.7-5.9 1.9-1.3 1.2-.5 2.5-.5 4.1 0 3.2-1.1 5.1-4.8 5.1-1.4 0-2.2-.8-2.2-2.9 0-2.9 2.5-6.3 6.2-8.5 3.8-2.2 6.9-3.2 11-3.2 4.2 0 5.9 1.3 7.2 2.4 1.9 1.9 2 4 2 6.4v13.8l.1 5.7zm-6.6-9.1c-3.2 2.4-12.1 4.2-12.1 11.7 0 3.3 2 4.9 4.7 4.9 2.6 0 7.4-3.2 7.4-5.6v-11zM208.5 86.7c-3.2-2-4.6-4.3-4.6-7.3 0-5 5.1-8.9 9.5-10.8v-.4c-3.8-.8-6-3.6-6-6.3 0-4.3 4.9-7.4 8.1-8.6v-.2c-3.5-1.5-8.4-5.7-8.4-13.7 0-5.8 5.2-13 15.4-13 6.8 0 10.4 4.1 11.3 5.2 2.4-1.7 5.5-3.5 8.5-3.5s4.4 2 4.2 3.8c0 1.7-1.4 3.3-3.5 3.3-1.5 0-2.4-.7-3.1-1.3-.5-.4-1.2-.8-1.9-.8-.6 0-1.7 0-2.9.5.7 1.8 1.4 3.8 1.4 6.8 0 3.5-1 6.9-3.3 9.7-2.3 2.6-7.5 4.5-10.4 4.5-2 0-3.2-.1-4.6-.5-1.8.7-4.8 2.5-4.8 5 0 3.7 4.5 3.4 10.5 3.1 7.4-.4 11.9.4 15.5 3.2 3.9 2.9 4.3 6.5 4.4 8.6 0 4.2-1.5 7.7-6 11.1-2.3 1.7-7.7 4.2-15.4 4.2-4.4.2-9.6-.2-13.9-2.6zm29.7-9.3c0-5.3-4.1-9.4-13.1-8.7l-8.6.6c-2.8.7-7.2 3.8-7.2 8.6 0 2.2 1.7 4.9 3.5 6.2 3 2.1 6.2 2.5 12.6 2.5 3.4.1 13.3-2.3 12.8-9.2zm-8.3-38.3c0-4-.8-6.3-2.4-8.1-1.2-1.2-3-2-4.3-2-2.1 0-4.2.4-6.4 2.5-2.9 3.1-3.2 7.2-3.2 10.6 0 3.1 1 5.9 2.9 7.8 1.6 1.5 3.2 2.3 5.4 2.3 6 0 8-7.5 8-13.1zM251.3 59.9c-4.1-4.9-4.9-8.3-4.9-14.7 0-4.6 2.4-10.3 7.7-14.5 4.7-3.6 9.1-4.3 12.1-4.3 5 0 9.9 2.5 12.6 5.2 4 4.1 6.1 8.8 6.1 14.7 0 9.8-8.8 19.8-19.9 19.8-4.4 0-9.9-1.7-13.7-6.2zm26-14.5c0-10-7.3-16.3-11.9-16.3-2.4 0-4.8.5-6.9 2.9-3.5 3.6-4.8 7.3-4.8 14.1 0 5 .5 8.5 3.4 12.6 2.1 3 4.7 4.7 8.9 4.7 6.9 0 11.3-8.3 11.3-18z"/></g><g><path d="M565 50.7c1.3-1.4 10.3-22.9 11-24 .6-1.3 10.4-22.4 10.7-24.2.2-1 1.2-1.1 2.1-1.1 12 0 15-.3 16-.3.4 0 .5.3.5.6v2.1c0 .5-.1.8-.7.8h-4c-2.7 0-3 1.6-3 3.7 0 2.6-.3 15.5-.3 21.5v6.3c0 4.5.3 19.1.3 20.9 0 3.4.8 4.9 3.1 4.9h5.3c.5 0 .6.3.6.6v2.1c0 .5-.1.8-.8.8-1.1 0-2.7-.3-12.6-.3-8.3 0-11.8.3-13 .3-.6 0-.7-.3-.7-.8v-2.1c0-.5.1-.6.7-.6h6.1c1.5 0 2.3-.5 2.5-3.2.1-1.1.2-16.7.2-23.4v-5.8c0-5.9 0-22-.3-22.8-.9 1.2-13.7 29.5-14.1 30.4-.5 1.1-10.5 24-10.9 24.8s-1.1 2.2-1.8 2.2c-.5 0-1-.7-1.4-1.6-.3-.6-11.8-29.1-12.2-30.2-1.7-4.1-9.9-24.3-11.2-25.4-.4 1.3-.5 24-.5 25.1s-.1 20.1.2 23.2c.4 5.1 1.3 6.6 4.1 6.6h4.5c.5 0 .6.3.6.6v2.2c0 .4-.1.6-.8.6-1 0-3.4-.3-10.9-.3-7.7 0-10.8.3-11.6.3-.7 0-.8-.1-.8-.8v-2.2c0-.3.1-.5.5-.5h4.8c3.4 0 4.2-2.3 4.8-5.4 1.1-6.4 1.4-29.4 1.4-31.1 0-1.3 0-14.8-.1-17.5-.1-2.1 0-3.3-3.7-3.3h-5.5c-.5 0-.6-.3-.6-.6V1.5c0-.3.1-.5.6-.5.9 0 3.3.3 11 .3 4.2 0 6.6-.3 7.7-.3 1.4 0 1.9.4 2.3 1.5L565 50.7z"/><path d="M641.2 46.8c0 4.3 0 8.7.2 10.6.3 2.8 1.3 3.2 2.3 3.2.5 0 1.9 0 3-.3.7-.2 1 0 1.1.4l.3 1.2c.1.5-.1.7-.4.8l-9.5 3.1c-.5.2-1.1.4-1.8.4-.4 0-.7-.2-.8-1.1l-.7-5.2h-.2c-2.5 3.5-7.7 6.3-12.2 6.3-2.5 0-5.5-.3-8.5-4.1-3.7-4.8-3.5-7.7-3.5-17.6V33.9c-.1-2.5-1.4-3.2-3.4-3.4-1.5-.1-2-.2-2-.6v-1.6c0-.5.2-.7 1-.7h8c1 0 1.6-.3 2.2-.3.6 0 1.1.4 1 1.1-.1.8-.4 5-.4 10.3v6.4c0 3.6-.9 9.4 2 13.5 2.3 3.2 4.8 3.4 7.2 3.4s6-2.3 7.7-4.5c.4-.5.9-1.6.9-2.4V33.7c-.2-2.5-1.6-3-3.9-3.1-1.5 0-2-.2-2-.6v-1.5c0-.7.2-.8 1.1-.8h8.4c1.2 0 2-.3 2.6-.3.5 0 .9.4.8.9-.1.8-.5 3.1-.5 12v6.5zM653.2 63.5c-.4-.3-.4-.8-.5-1.3l-1.5-8.6c-.1-.4.2-.6.5-.7l1.2-.3c.4-.1.6.1.8.5l2.3 4.4c1.8 3.3 3.1 5.6 7.8 5.6 3.2 0 7.1-1.9 7.1-6.1 0-4-2-6.4-8.7-8.3-5.3-1.5-10.6-4.3-10.6-11.4 0-6.2 5.9-11 12.6-11 4.3 0 6.7 1.1 8.3 1.9 1.4.6 1.5 1.1 1.6 1.6l1.4 6.3c0 .4-.2.6-.6.8l-1.1.4c-.4.1-.5 0-.8-.4l-3.1-4.1c-1.1-1.7-2.8-3.5-6.3-3.5-3.4 0-6.9 2.1-6.9 5.9 0 5.2 4.2 6.2 8.6 7.5 6.6 1.9 10.7 4.6 10.8 11.5-.1 7.3-6 11.9-13.7 11.9-4.5 0-8.1-1.8-9.2-2.6zM688.4 41.1c-.2.8-.3 2.2-.3 4.3 0 8.8 5.6 15.5 12.8 15.5 5.5 0 9.4-3.1 10.9-6.1.2-.4.5-.5.8-.4l1.2.6c.3.1.5.4 0 1.3-1.6 3.6-6.3 9.8-14.3 9.8-5.1 0-10.8-1.5-14.1-6.4-3.2-4.6-4-7.9-4-14.2 0-3.5.9-9.5 5.7-14.3 3.9-4 8.4-4.8 12.9-4.8 10.4 0 13.2 9.7 13.2 13.2 0 1.3-1.1 1.4-2.5 1.4h-22.3v.1zm14.3-2.7c1.7 0 2.4-.5 2.4-1.3 0-2.1-1.1-8-6.9-8-4 0-7.7 2.6-9.4 9.3h13.9zM753.1 46.8c0 4.3 0 8.7.2 10.6.3 2.8 1.3 3.2 2.3 3.2.5 0 1.9 0 3-.3.7-.2 1 0 1.1.4l.3 1.2c.1.5-.1.7-.4.8l-9.5 3.1c-.5.2-1.1.4-1.8.4-.4 0-.7-.2-.8-1.1l-.7-5.2h-.2c-2.5 3.5-7.7 6.3-12.2 6.3-2.5 0-5.5-.3-8.5-4.1-3.7-4.8-3.5-7.7-3.5-17.6V33.9c-.1-2.5-1.4-3.2-3.4-3.4-1.5-.1-2-.2-2-.6v-1.6c0-.5.2-.7 1-.7h8c1 0 1.6-.3 2.3-.3.6 0 1.1.4 1 1.1-.1.8-.4 5-.4 10.3v6.4c0 3.6-.9 9.4 2 13.5 2.3 3.2 4.8 3.4 7.2 3.4s6-2.3 7.7-4.5c.4-.5.9-1.6.9-2.4V33.7c-.2-2.5-1.6-3-3.9-3.1-1.5 0-2-.2-2-.6v-1.5c0-.7.2-.8 1.1-.8h8.4c1.2 0 2-.3 2.6-.3.5 0 .9.4.8.9-.1.8-.5 3.1-.5 12l-.1 6.5zM792.9 42c0-6.7-1.3-8.4-2.7-9.7-1.2-1.1-3.8-1.6-5.8-1.6-2.3 0-6.1 1.2-8.6 5.2-1.1 1.8-1.3 3.5-1.3 6v17.8c0 1.4.5 2.3 1.8 2.3h3.2c.8 0 .9.2.9.8v1.4c0 .6-.1 1-.7 1-.8 0-3.2-.3-8.2-.3-4.8 0-7.6.3-8.4.3-.5 0-.7-.2-.7-.8v-1.5c0-.7.2-.8 1.1-.8h3.1c.8 0 1.3-.5 1.4-2.2.1-1.5.1-3.2.1-4.7v-16c0-1.8-.4-3.4-2.5-4.6l-1.9-1c-.4-.3-.6-.5-.6-.7v-.7c0-.3.4-.6.5-.7l7.9-4c.7-.4 1.4-.5 1.7-.5.5 0 .8.6.8 1.3l.4 5.2h.3c2.7-3.7 8-6.8 13.2-6.8 4.7 0 8.3 2.7 10.2 6.9h.4c2.7-3.5 7.8-6.9 13.2-6.9 3.1 0 5.9.5 8.1 2.7 2.1 2.2 4.3 4.1 4.3 11.1v20.1c0 1.4.8 1.8 1.9 1.8h2.4c.8 0 1 .2 1 .8v1.5c0 .6-.2.9-.6.9-.6 0-3.2-.3-7.5-.3-4.5 0-7.7.3-8.4.3-.5 0-.7-.3-.7-.9v-1.8c0-.6.2-.8 1.2-.8h2.2c1 0 1.7-.4 1.8-1.7.2-2.1.2-5.3.2-7.3V39.8c0-3-.5-5.6-2.6-7.2-1.6-1.3-4-1.9-6.7-1.9s-6.4 2.1-7.8 4.7c-1.3 2.6-1.3 5-1.3 9.1v15.6c0 1.2.5 2.1 1.8 2.1h3.1c.8 0 1 .2 1 .8v1.4c0 .7-.2 1-.6 1-.6 0-3-.3-8-.3-4.9 0-7.9.3-8.5.3-.5 0-.6-.3-.6-.9v-1.4c0-.7.1-.9.9-.9h2.6c1.4 0 2-.4 2-1.5V42z"/></g></svg>