<svg xmlns="http://www.w3.org/2000/svg" viewBox="0 0 683.37 313.12"><defs><style>.cls-1{opacity:0.5;}.cls-2{fill:#fff;}</style></defs><title>Asset 1</title><g id="Layer_2" data-name="Layer 2"><g id="Layer_1-2" data-name="Layer 1"><g class="cls-1"><path class="cls-2" d="M376,202.94a1.3,1.3,0,0,0,.47.42V202A.74.74,0,0,0,376,202.94Z"/><path class="cls-2" d="M301.12,107.1c-.21-.57-.28,0-.28,0l0,3.54a1.57,1.57,0,0,0,.32.5Z"/><path class="cls-2" d="M282.68,208.19c-.59-.65-.67-3.66-1.62-2.77a22.74,22.74,0,0,0,3,5.86c-.73.45-1.54-.88-1.46,0a1.21,1.21,0,0,1,.93,1c2-.46.84-3,.21-4.68C283.87,208.17,283.53,208.36,282.68,208.19Z"/><path class="cls-2" d="M373.58,154.68l-1.72.07-.35,0-1,0-.22-6.23,0-1.18-.34-9.72-1.32-2.15-.18-.3-.32.13-.29-.43-.77-1.13h-.37v1.69l-.28.09-1.83-3-.77,0v-3.35l-.05-.06-.6-.74h-.49v4.32h-1.18v2a.64.64,0,0,1-.47.18l-.05-.07c.25-1.19-.1-.91-.81-1.13l-.48-.67h0l-.57,0V129.8l-.65-.71H358l-.08,4.33h-1.13v2.45L355.67,134l-.45-.58-.56.09v-3.12l-.85-.89h-.57v4.24h-1.1v15.77h-1v7.4H348v9h-1.22v30.43h-5.62v13.57h-4.73V189.57H325.46V190a.72.72,0,0,0,0,.67v9.88h-2l-.1-6.46,0-1.79,0-1v-.61l-.08-5.44-.14-9.23-.92-.34-.06-3.72,0-1.43-.74-.23v-.07h-.12s0,0,0,0l-2.33-.73L317.3,169l-1.3-.41-.55-.17,0-1.86,0-.07h0l0-2.92v-.23h.14l-.14-.19v-.74l0-1.93v-2.76l0-2.79-.06-5.64v-.59l0-1.52V144.7l0-1.92,0-3.1v0l-.06,0-2.92-1.11L312,122.41c-.24-.49-.41,0-.41,0l.07,7.12-2.51,0L309,115.32l-.14-.19,0-.36a.54.54,0,0,1-.06-1l-.37-5.9-.14-.19-.1-3c-.14-.42-.35,0-.35,0l0,3-.14.08v7.31l-.28.26,0,3.53a.68.68,0,0,0,0,.07h0v1.22c-.17-.23-.31.34-.31.34l.07,8.14c-.55-.34-.55.42-.55.42l0,.8c0,.45.48.49.48.49v1.29c-.17-.27-.55.07-.55.07v.65c0,.49.45.38.45.38l0,3.75h0l-.85.49.06-2.26-.14,0-.14,2-1.65-.68-.07-1.74-.14,0-.07,1.7-.26.16-.08.05c-1.14-1-.3-2.36-.9-3.37v-.69a.76.76,0,0,0,.43.14c-.17-.9-.28-1.63-.43-2.33v-1.54c-.07-.38-.34-.26-.34-.26,0-.51-.26-.49-.44-.41l-.17-.32.07-2.95a1.21,1.21,0,0,0-.22-1.55l-.1-7.2-.38-.34v-4.33a1.57,1.57,0,0,1-.32-.5l-.06,4.91-.31.15v7.39l-.21.26v2.08a1.19,1.19,0,0,0-.52-.34c.25.63-.5,2,.51,2.24l0,5v1.27c-.52-.83-1,0-1,0V141l-1.48.85,0-11.86a1.34,1.34,0,0,1-.33.09v.28l-.31.08v3.67c-.24-.11-.21.34-.21.34l0,6.06c0,.57.45.34.45.34l0,1.23-2.67,1.53-.09,10.74v1.48a.39.39,0,0,0-.11.15.65.65,0,0,0,0,.33,3,3,0,0,0,.13.48v2.48l0,4.51v.54h0v3.28h0v3h0c-.55-.1-1.32.3-.84.62l-1,.5-.24,28.86h-12v9.2a62,62,0,0,0,6.2,7.78,53.6,53.6,0,0,0,28.74,16.14,58.82,58.82,0,0,0,10.35,1.15l1.13,0h.35a80.52,80.52,0,0,0,15.14-1.39l.46-.1,1.27-.26a59.76,59.76,0,0,0,32.54-18.68v-11.1a1.3,1.3,0,0,1-.47-.42.74.74,0,0,1,.47-.94V158.87Zm-90.09,57.6a1.21,1.21,0,0,0-.93-1c-.08-.86.73.47,1.46,0a22.74,22.74,0,0,1-3-5.86c1-.89,1,2.13,1.63,2.77.85.17,1.19,0,1-.59C284.34,209.25,285.5,211.81,283.5,212.28Z"/><path class="cls-2" d="M297.68,126.38c-.07-.38-.24,0-.24,0l-.08,3a2.48,2.48,0,0,0,.31-.39Z"/><path class="cls-2" d="M296.81,130.06a1.91,1.91,0,0,0,.53,0l0-.77A2.29,2.29,0,0,0,296.81,130.06Z"/></g><path class="cls-2" d="M396.51,313.12h37.86L449,275.54A143.83,143.83,0,0,1,396.51,313.12Z"/><path class="cls-2" d="M553.37,1.12h-91L448.91,38.64a149.18,149.18,0,0,1,16.64,23.23l7.24,12.46-47.54,30.21-29.88,83.23L474,236.31l-6.58,12.41q-2.82,5.32-6.1,10.4h104l21,52h97Zm-73,193,38-100,29,100Z"/><path class="cls-2" d="M439.81,232.82l-3-1.85-13.14-8.11-12-7.39-14.52-9-10.74-6.62a70.83,70.83,0,0,1-9.73,14c-12.3,13.7-29.09,20.43-49.41,20.43-19.71,0-36-9.15-46.77-25.1a70.94,70.94,0,0,1-5.82-10.47c-.56-1.24-1.08-2.52-1.59-3.81-4.24-10.87-6.56-23.67-6.56-38,0-45.75,24.73-76.82,60.75-76.82,25.27,0,45.16,11.86,58.6,31.63l66.67-42.36c-25.27-43.5-71.51-68.35-129-68.35a170.38,170.38,0,0,0-47.19,6.39l-85.68,229c.2.39.38.78.58,1.16q2.29,4.39,4.84,8.56l-.06,0a.53.53,0,0,0,.14.09l.23.38,1,1.63q2.24,3.51,4.66,6.86l.47.66c.55.75,1.12,1.5,1.69,2.24,26.25,34.26,67.55,54.3,118.22,54.3,52,0,93.61-18.74,119.45-51.71a127,127,0,0,0,12.27-18.9Z"/><polygon class="cls-2" points="0 1 91 0 142 86 174 2 262 3 146 313 57 313 107 178 0 1"/></g></g></svg>